<?xml version="1.0" encoding="UTF-8" standalone="no"?>
<!DOCTYPE svg PUBLIC "-//W3C//DTD SVG 1.1//EN"
 "http://www.w3.org/Graphics/SVG/1.1/DTD/svg11.dtd">
<!-- Generated by graphviz version 2.43.0 (0)
 -->
<!-- Title: G Pages: 1 -->
<svg width="1003pt" height="98pt"
 viewBox="0.00 0.00 1003.00 98.00" xmlns="http://www.w3.org/2000/svg" xmlns:xlink="http://www.w3.org/1999/xlink">
<g id="graph0" class="graph" transform="scale(1 1) rotate(0) translate(4 94)">
<title>G</title>
<polygon fill="white" stroke="transparent" points="-4,4 -4,-94 999,-94 999,4 -4,4"/>
<g id="clust3" class="cluster">
<title>cluster_collectors</title>
<polygon fill="none" stroke="black" points="636,-8 636,-82 987,-82 987,-8 636,-8"/>
<text text-anchor="middle" x="811.5" y="-66.8" font-family="Times,serif" font-size="14.00">Collectors</text>
</g>
<g id="clust1" class="cluster">
<title>cluster_storage</title>
<polygon fill="none" stroke="black" points="8,-8 8,-82 100,-82 100,-8 8,-8"/>
<text text-anchor="middle" x="54" y="-66.8" font-family="Times,serif" font-size="14.00">Data</text>
</g>
<g id="clust2" class="cluster">
<title>cluster_gui</title>
<polygon fill="none" stroke="black" points="108,-8 108,-82 628,-82 628,-8 108,-8"/>
<text text-anchor="middle" x="368" y="-66.8" font-family="Times,serif" font-size="14.00">GUI</text>
</g>
<!-- RDF Store -->
<g id="node1" class="node">
<title>RDF Store</title>
<polygon fill="none" stroke="black" points="92.29,-52 15.71,-52 15.71,-16 92.29,-16 92.29,-52"/>
<text text-anchor="middle" x="54" y="-29.8" font-family="Times,serif" font-size="14.00">RDF Store</text>
</g>
<!-- Graph View -->
<g id="node2" class="node">
<title>Graph View</title>
<polygon fill="none" stroke="black" points="619.73,-52 536.27,-52 536.27,-16 619.73,-16 619.73,-52"/>
<text text-anchor="middle" x="578" y="-29.8" font-family="Times,serif" font-size="14.00">Graph View</text>
</g>
<!-- Timeline View -->
<g id="node3" class="node">
<title>Timeline View</title>
<polygon fill="none" stroke="black" points="518.3,-52 419.7,-52 419.7,-16 518.3,-16 518.3,-52"/>
<text text-anchor="middle" x="469" y="-29.8" font-family="Times,serif" font-size="14.00">Timeline View</text>
</g>
<!-- Table View -->
<g id="node4" class="node">
<title>Table View</title>
<polygon fill="none" stroke="black" points="401.64,-52 322.36,-52 322.36,-16 401.64,-16 401.64,-52"/>
<text text-anchor="middle" x="362" y="-29.8" font-family="Times,serif" font-size="14.00">Table View</text>
</g>
<!-- List View -->
<g id="node5" class="node">
<title>List View</title>
<polygon fill="none" stroke="black" points="304.03,-52 233.97,-52 233.97,-16 304.03,-16 304.03,-52"/>
<text text-anchor="middle" x="269" y="-29.8" font-family="Times,serif" font-size="14.00">List View</text>
</g>
<!-- Calendar View -->
<g id="node6" class="node">
<title>Calendar View</title>
<polygon fill="none" stroke="black" points="215.78,-52 116.22,-52 116.22,-16 215.78,-16 215.78,-52"/>
<text text-anchor="middle" x="166" y="-29.8" font-family="Times,serif" font-size="14.00">Calendar View</text>
</g>
<!-- Browser Plugin -->
<g id="node7" class="node">
<title>Browser Plugin</title>
<polygon fill="none" stroke="black" points="978.5,-52 875.5,-52 875.5,-16 978.5,-16 978.5,-52"/>
<text text-anchor="middle" x="927" y="-29.8" font-family="Times,serif" font-size="14.00">Browser Plugin</text>
</g>
<!-- Text Editor Plugin -->
<g id="node8" class="node">
<title>Text Editor Plugin</title>
<polygon fill="none" stroke="black" points="857.74,-52 738.26,-52 738.26,-16 857.74,-16 857.74,-52"/>
<text text-anchor="middle" x="798" y="-29.8" font-family="Times,serif" font-size="14.00">Text Editor Plugin</text>
</g>
<!-- CLI Client -->
<g id="node9" class="node">
<title>CLI Client</title>
<polygon fill="none" stroke="black" points="720.27,-52 643.73,-52 643.73,-16 720.27,-16 720.27,-52"/>
<text text-anchor="middle" x="682" y="-29.8" font-family="Times,serif" font-size="14.00">CLI Client</text>
</g>
</g>
</svg>
