<?xml version="1.0" encoding="UTF-8" standalone="no"?>
<!DOCTYPE svg PUBLIC "-//W3C//DTD SVG 1.1//EN"
 "http://www.w3.org/Graphics/SVG/1.1/DTD/svg11.dtd">
<!-- Generated by graphviz version 2.43.0 (0)
 -->
<!-- Title: G Pages: 1 -->
<svg width="1017pt" height="302pt"
 viewBox="0.00 0.00 1017.13 302.00" xmlns="http://www.w3.org/2000/svg" xmlns:xlink="http://www.w3.org/1999/xlink">
<g id="graph0" class="graph" transform="scale(1 1) rotate(0) translate(4 298)">
<title>G</title>
<polygon fill="white" stroke="transparent" points="-4,4 -4,-298 1013.13,-298 1013.13,4 -4,4"/>
<!-- Nicolas Wirth -->
<g id="node1" class="node">
<title>Nicolas Wirth</title>
<ellipse fill="none" stroke="black" cx="204.8" cy="-276" rx="59.41" ry="18"/>
<text text-anchor="middle" x="204.8" y="-271.8" font-family="Times,serif" font-size="14.00">Nicolas Wirth</text>
</g>
<!-- https://en.wikipedia.org/wiki/Niklaus_Wirth -->
<g id="node2" class="node">
<title>https://en.wikipedia.org/wiki/Niklaus_Wirth</title>
<ellipse fill="none" stroke="black" cx="166.8" cy="-190" rx="166.6" ry="18"/>
<text text-anchor="middle" x="166.8" y="-185.8" font-family="Times,serif" font-size="14.00">https://en.wikipedia.org/wiki/Niklaus_Wirth</text>
</g>
<!-- Nicolas Wirth&#45;&gt;https://en.wikipedia.org/wiki/Niklaus_Wirth -->
<g id="edge1" class="edge">
<title>Nicolas Wirth&#45;&gt;https://en.wikipedia.org/wiki/Niklaus_Wirth</title>
<path fill="none" stroke="black" d="M197.11,-258C191.84,-246.35 184.74,-230.67 178.74,-217.4"/>
<polygon fill="black" stroke="black" points="181.92,-215.93 174.61,-208.26 175.54,-218.82 181.92,-215.93"/>
<text text-anchor="middle" x="215.73" y="-228.8" font-family="Times,serif" font-size="14.00">Wikipage</text>
</g>
<!-- A Plea for Lean Software -->
<g id="node3" class="node">
<title>A Plea for Lean Software</title>
<ellipse fill="none" stroke="black" cx="451.8" cy="-190" rx="99.98" ry="18"/>
<text text-anchor="middle" x="451.8" y="-185.8" font-family="Times,serif" font-size="14.00">A Plea for Lean Software</text>
</g>
<!-- Nicolas Wirth&#45;&gt;A Plea for Lean Software -->
<g id="edge2" class="edge">
<title>Nicolas Wirth&#45;&gt;A Plea for Lean Software</title>
<path fill="none" stroke="black" d="M242.85,-262.06C284.16,-248.01 350.5,-225.45 397.32,-209.53"/>
<polygon fill="black" stroke="black" points="398.66,-212.77 407,-206.23 396.41,-206.14 398.66,-212.77"/>
<text text-anchor="middle" x="375.68" y="-228.8" font-family="Times,serif" font-size="14.00">is author of</text>
</g>
<!-- Scientific Papaper -->
<g id="node4" class="node">
<title>Scientific Papaper</title>
<ellipse fill="none" stroke="black" cx="216.8" cy="-104" rx="74.41" ry="18"/>
<text text-anchor="middle" x="216.8" y="-99.8" font-family="Times,serif" font-size="14.00">Scientific Papaper</text>
</g>
<!-- A Plea for Lean Software&#45;&gt;Scientific Papaper -->
<g id="edge3" class="edge">
<title>A Plea for Lean Software&#45;&gt;Scientific Papaper</title>
<path fill="none" stroke="black" d="M393.33,-175.37C370.99,-169.58 345.43,-162.26 322.75,-154 300.06,-145.74 275.54,-134.56 255.81,-124.96"/>
<polygon fill="black" stroke="black" points="257.34,-121.81 246.83,-120.54 254.25,-128.09 257.34,-121.81"/>
<text text-anchor="middle" x="332.32" y="-142.8" font-family="Times,serif" font-size="14.00">is a</text>
</g>
<!-- 5 -->
<g id="node5" class="node">
<title>5</title>
<ellipse fill="none" stroke="black" cx="335.8" cy="-104" rx="27" ry="18"/>
<text text-anchor="middle" x="335.8" y="-99.8" font-family="Times,serif" font-size="14.00">5</text>
</g>
<!-- A Plea for Lean Software&#45;&gt;5 -->
<g id="edge4" class="edge">
<title>A Plea for Lean Software&#45;&gt;5</title>
<path fill="none" stroke="black" d="M390.08,-175.79C377.1,-170.7 364.36,-163.68 354.49,-154 348.37,-147.99 344.22,-139.77 341.42,-131.78"/>
<polygon fill="black" stroke="black" points="344.72,-130.57 338.55,-121.96 338,-132.54 344.72,-130.57"/>
<text text-anchor="middle" x="401.45" y="-142.8" font-family="Times,serif" font-size="14.00">number of pages</text>
</g>
<!-- Feb 1995 -->
<g id="node6" class="node">
<title>Feb 1995</title>
<ellipse fill="none" stroke="black" cx="451.8" cy="-104" rx="43.04" ry="18"/>
<text text-anchor="middle" x="451.8" y="-99.8" font-family="Times,serif" font-size="14.00">Feb 1995</text>
</g>
<!-- A Plea for Lean Software&#45;&gt;Feb 1995 -->
<g id="edge5" class="edge">
<title>A Plea for Lean Software&#45;&gt;Feb 1995</title>
<path fill="none" stroke="black" d="M451.8,-171.6C451.8,-160.26 451.8,-145.23 451.8,-132.32"/>
<polygon fill="black" stroke="black" points="455.3,-132.1 451.8,-122.1 448.3,-132.1 455.3,-132.1"/>
<text text-anchor="middle" x="504.28" y="-142.8" font-family="Times,serif" font-size="14.00">date of publication</text>
</g>
<!-- Computer -->
<g id="node7" class="node">
<title>Computer</title>
<ellipse fill="none" stroke="black" cx="568.8" cy="-104" rx="45.45" ry="18"/>
<text text-anchor="middle" x="568.8" y="-99.8" font-family="Times,serif" font-size="14.00">Computer</text>
</g>
<!-- A Plea for Lean Software&#45;&gt;Computer -->
<g id="edge6" class="edge">
<title>A Plea for Lean Software&#45;&gt;Computer</title>
<path fill="none" stroke="black" d="M522.02,-177.09C535.42,-171.93 548.23,-164.55 557.8,-154 563.17,-148.07 566.11,-140.1 567.66,-132.3"/>
<polygon fill="black" stroke="black" points="571.13,-132.73 569,-122.35 564.2,-131.8 571.13,-132.73"/>
<text text-anchor="middle" x="600.21" y="-142.8" font-family="Times,serif" font-size="14.00">published in</text>
</g>
<!-- ~/Papers/wirth_a&#45;plea&#45;for&#45;lean&#45;software_1995.pdf -->
<g id="node8" class="node">
<title>~/Papers/wirth_a&#45;plea&#45;for&#45;lean&#45;software_1995.pdf</title>
<ellipse fill="none" stroke="black" cx="820.8" cy="-104" rx="188.16" ry="18"/>
<text text-anchor="middle" x="820.8" y="-99.8" font-family="Times,serif" font-size="14.00">~/Papers/wirth_a&#45;plea&#45;for&#45;lean&#45;software_1995.pdf</text>
</g>
<!-- A Plea for Lean Software&#45;&gt;~/Papers/wirth_a&#45;plea&#45;for&#45;lean&#45;software_1995.pdf -->
<g id="edge7" class="edge">
<title>A Plea for Lean Software&#45;&gt;~/Papers/wirth_a&#45;plea&#45;for&#45;lean&#45;software_1995.pdf</title>
<path fill="none" stroke="black" d="M522.22,-177.16C557.37,-170.91 600.48,-162.73 638.8,-154 677.56,-145.17 720.53,-133.68 754.98,-124.05"/>
<polygon fill="black" stroke="black" points="756.24,-127.33 764.92,-121.26 754.34,-120.59 756.24,-127.33"/>
<text text-anchor="middle" x="716.38" y="-142.8" font-family="Times,serif" font-size="14.00">file link</text>
</g>
<!-- Journal -->
<g id="node9" class="node">
<title>Journal</title>
<ellipse fill="none" stroke="black" cx="568.8" cy="-18" rx="36.28" ry="18"/>
<text text-anchor="middle" x="568.8" y="-13.8" font-family="Times,serif" font-size="14.00">Journal</text>
</g>
<!-- Computer&#45;&gt;Journal -->
<g id="edge8" class="edge">
<title>Computer&#45;&gt;Journal</title>
<path fill="none" stroke="black" d="M568.8,-85.6C568.8,-74.26 568.8,-59.23 568.8,-46.32"/>
<polygon fill="black" stroke="black" points="572.3,-46.1 568.8,-36.1 565.3,-46.1 572.3,-46.1"/>
<text text-anchor="middle" x="578.32" y="-56.8" font-family="Times,serif" font-size="14.00">is a</text>
</g>
</g>
</svg>
